<?xml version="1.0" standalone="no"?><!DOCTYPE svg PUBLIC "-//W3C//DTD SVG 1.1//EN" "http://www.w3.org/Graphics/SVG/1.1/DTD/svg11.dtd"><svg t="1786674562978" class="icon" viewBox="0 0 1024 1024" version="1.1" xmlns="http://www.w3.org/2000/svg" p-id="20678" xmlns:xlink="http://www.w3.org/1999/xlink" width="200" height="200"><path d="M870.4 896H153.6c-15.36 0-25.6-10.24-25.6-25.6v-179.2c0-15.36 10.24-25.6 25.6-25.6s25.6 10.24 25.6 25.6v153.6h665.6V179.2h-153.6c-15.36 0-25.6-10.24-25.6-25.6s10.24-25.6 25.6-25.6h179.2c15.36 0 25.6 10.24 25.6 25.6v716.8c0 15.36-10.24 25.6-25.6 25.6z" p-id="20679" fill="#040404"></path><path d="M691.2 358.4c-15.36 0-25.6-10.24-25.6-25.6V153.6c0-15.36 10.24-25.6 25.6-25.6h179.2c15.36 0 25.6 10.24 25.6 25.6s-10.24 25.6-25.6 25.6h-153.6v153.6c0 15.36-10.24 25.6-25.6 25.6z" p-id="20680" fill="#040404"></path><path d="M512 537.6c-15.36 0-25.6-10.24-25.6-25.6v-179.2c0-15.36 10.24-25.6 25.6-25.6h179.2c15.36 0 25.6 10.24 25.6 25.6s-10.24 25.6-25.6 25.6h-153.6v153.6c0 15.36-10.24 25.6-25.6 25.6z" p-id="20681" fill="#040404"></path><path d="M332.8 716.8c-15.36 0-25.6-10.24-25.6-25.6v-179.2c0-15.36 10.24-25.6 25.6-25.6h179.2c15.36 0 25.6 10.24 25.6 25.6s-10.24 25.6-25.6 25.6h-153.6v153.6c0 15.36-10.24 25.6-25.6 25.6z" p-id="20682" fill="#040404"></path><path d="M153.6 896c-15.36 0-25.6-10.24-25.6-25.6v-179.2c0-15.36 10.24-25.6 25.6-25.6h179.2c15.36 0 25.6 10.24 25.6 25.6s-10.24 25.6-25.6 25.6H179.2v153.6c0 15.36-10.24 25.6-25.6 25.6z" p-id="20683" fill="#040404"></path></svg>