<?xml version="1.0" standalone="no"?><!DOCTYPE svg PUBLIC "-//W3C//DTD SVG 1.1//EN" "http://www.w3.org/Graphics/SVG/1.1/DTD/svg11.dtd"><svg t="1786671625566" class="icon" viewBox="0 0 1024 1024" version="1.1" xmlns="http://www.w3.org/2000/svg" p-id="12201" xmlns:xlink="http://www.w3.org/1999/xlink" width="200" height="200"><path d="M804.5568 945.664H206.7968a133.7856 133.7856 0 0 1-133.632-133.632V424.96a134.144 134.144 0 0 1 54.4256-107.52l297.8304-219.136a133.12 133.12 0 0 1 158.1056 0L883.456 317.44a133.9904 133.9904 0 0 1 54.784 107.8784v386.7136a133.8368 133.8368 0 0 1-133.6832 133.632zM504.6272 133.7344a72.0896 72.0896 0 0 0-42.8032 14.1312L163.84 367.0016A72.3968 72.3968 0 0 0 134.6048 424.96v387.072a72.2432 72.2432 0 0 0 72.192 72.192h597.76a72.2944 72.2944 0 0 0 72.2432-72.192V425.3696a72.6016 72.6016 0 0 0-29.5936-58.3168l-299.9296-219.3408a72.2432 72.2432 0 0 0-42.6496-13.9776z" fill="#2c2c2c" p-id="12202"></path><path d="M505.7024 802.3552a30.72 30.72 0 0 1-30.72-30.72v-224.7168a30.72 30.72 0 0 1 61.44 0v224.7168a30.72 30.72 0 0 1-30.72 30.72z" fill="#2c2c2c" p-id="12203"></path></svg>